<svg viewBox="0 0 512 512" xmlns="http://www.w3.org/2000/svg" fill-rule="evenodd" clip-rule="evenodd" stroke-linejoin="round" stroke-miterlimit="2"><path d="M63.708 110.284c-2.86 3.601-8.658 1.628-8.727-2.97l-1.007-67.251h45.22c8.19 0 12.758 9.46 7.665 15.874z" fill="url(#a)" fill-rule="nonzero" transform="translate(19.834 12.62)scale(4.33237)"/><path d="M63.708 110.284c-2.86 3.601-8.658 1.628-8.727-2.97l-1.007-67.251h45.22c8.19 0 12.758 9.46 7.665 15.874z" fill="url(#b)" fill-rule="nonzero" transform="translate(19.834 12.62)scale(4.33237)"/><path d="M216.165 21.593c12.386-15.6 37.51-7.053 37.804 12.867l1.915 291.356H62.426c-35.486 0-55.277-40.984-33.208-68.776z" fill="#3ecf8e" fill-rule="nonzero"/><defs><linearGradient id="a" x1="0" y1="0" x2="1" y2="0" gradientUnits="userSpaceOnUse" gradientTransform="rotate(22.753 -109.622 161.61)scale(43.5812)"><stop offset="0" stop-color="#249361"/><stop offset="1" stop-color="#3ecf8e"/></linearGradient><linearGradient id="b" x1="0" y1="0" x2="1" y2="0" gradientUnits="userSpaceOnUse" gradientTransform="rotate(62.022 -7.345 45.359)scale(39.0687)"><stop offset="0" stop-opacity=".2"/><stop offset="1" stop-opacity="0"/></linearGradient></defs></svg>